
<?xml version="1.0" encoding="UTF-8" standalone="no"?>
<svg xmlns="http://www.w3.org/2000/svg" version="1.1" xmlns:xlink="http://www.w3.org/1999/xlink" xmlns:svgjs="http://svgjs.dev/svgjs" width="308.7612359841165" 
height="304.915625" 
viewBox=" 0 106.00782394174519 104.68749999999999">
<g transform="matrix(0.8046875,0,0,0.8046875,12.333870967741937,12.333870967741937)">
<svg viewBox="0 0 155 155" data-background-color="#ffffff" preserveAspectRatio="xMidYMid meet" height="128" width="128" xmlns="http://www.w3.org/2000/svg" xmlns:xlink="http://www.w3.org/1999/xlink"><g id="tight-bounds" transform="matrix(1,0,0,1,0.25,0.25)">
<svg viewBox="0 0 154.5 154.5" height="154.5" width="154.5"><g>
<svg viewBox="0 0 154.5 154.5" height="154.5" width="154.5"><g transform="matrix(1,0,0,1,60.26228877158428,50.2438949702109)">
<svg viewBox="0 0 33.975422456831446 54.012210059578194" height="54.012210059578194" width="33.975422456831446"><g>
<svg viewBox="0 0 33.975422456831446 54.012210059578194" height="54.012210059578194" width="33.975422456831446"><g><svg viewBox="0 0 33.975422456831446 54.012210059578194" height="54.012210059578194" width="33.975422456831446"><g><svg viewBox="0 0 33.975422456831446 54.012210059578194" height="54.012210059578194" width="33.975422456831446"><g><svg viewBox="0 0 33.975422456831446 54.012210059578194" height="54.012210059578194" width="33.975422456831446"><g transform="matrix(1,0,0,1,0,0)"><svg width="33.975422456831446" viewBox="1.1 -35.95 25.349999999999998 40.300000000000004" height="54.012210059578194" data-palette-color="#124948"><path d="M10.95 4.35L10.95 4.35Q7.4 4.35 5.23 2.58 3.05 0.8 2.08-2 1.1-4.8 1.1-7.85L1.1-7.85Q1.1-11.8 2.3-15.8 3.5-19.8 5.58-23.43 7.65-27.05 10.3-29.88 12.95-32.7 15.88-34.33 18.8-35.95 21.65-35.95L21.65-35.95Q23.7-35.95 24.98-34.98 26.25-34 26.25-31.65L26.25-31.65Q26.25-30.2 25.75-28.38 25.25-26.55 24.4-24.88 23.55-23.2 22.53-22.1 21.5-21 20.45-21L20.45-21Q20.05-21 19.63-21.25 19.2-21.5 18.9-22.15L18.9-22.15Q19.65-23 20.58-24.28 21.5-25.55 22.35-26.98 23.2-28.4 23.73-29.78 24.25-31.15 24.25-32.2L24.25-32.2Q24.25-33.2 23.68-33.83 23.1-34.45 21.8-34.45L21.8-34.45Q19.65-34.45 17.32-32.7 15-30.95 12.83-28.03 10.65-25.1 8.9-21.5 7.15-17.9 6.13-14.15 5.1-10.4 5.1-7L5.1-7Q5.1-4.55 5.8-2.33 6.5-0.1 8.08 1.28 9.65 2.65 12.15 2.65L12.15 2.65Q14.8 2.65 17.43 1.15 20.05-0.35 22.25-2.8 24.45-5.25 25.75-8.1L25.75-8.1 26.45-7.6Q24.8-4.35 22.45-1.63 20.1 1.1 17.2 2.73 14.3 4.35 10.95 4.35Z" opacity="1" transform="matrix(1,0,0,1,0,0)" fill="#000000" class="undefined-text-0" data-fill-palette-color="primary" id="text-0"></path></svg></g></svg></g></svg></g></svg></g></svg></g></svg></g><path d="M5.443 105.695V105.695C5.137 104.791 5.113 103.988 5.372 103.287 5.638 102.584 6.082 101.988 6.705 101.499 7.337 101.015 8.039 100.642 8.812 100.38V100.38C9.814 100.041 10.871 99.851 11.982 99.81 13.099 99.767 14.206 99.856 15.303 100.076 16.398 100.289 17.418 100.608 18.365 101.032 19.308 101.465 20.111 101.981 20.774 102.582 21.438 103.182 21.892 103.846 22.139 104.573V104.573C22.314 105.09 22.332 105.552 22.191 105.957 22.054 106.369 21.687 106.676 21.09 106.878V106.878C20.724 107.002 20.289 107.076 19.786 107.101 19.279 107.134 18.776 107.114 18.277 107.042 17.784 106.968 17.353 106.848 16.982 106.681 16.614 106.521 16.384 106.307 16.293 106.038V106.038C16.26 105.94 16.257 105.824 16.285 105.691 16.315 105.564 16.399 105.433 16.536 105.299V105.299C16.816 105.416 17.157 105.538 17.558 105.665 17.959 105.792 18.379 105.901 18.819 105.993 19.253 106.087 19.665 106.141 20.057 106.155 20.448 106.168 20.778 106.129 21.047 106.038V106.038C21.296 105.954 21.478 105.812 21.593 105.612 21.701 105.415 21.699 105.149 21.586 104.815V104.815C21.401 104.271 20.987 103.78 20.342 103.342 19.696 102.903 18.911 102.534 17.984 102.235 17.057 101.935 16.063 101.717 15.002 101.58 13.936 101.452 12.884 101.418 11.846 101.477 10.807 101.537 9.859 101.712 9.001 102.003V102.003C8.378 102.214 7.815 102.503 7.312 102.871 6.809 103.239 6.451 103.681 6.239 104.198 6.021 104.718 6.019 105.295 6.235 105.93V105.93C6.463 106.605 6.883 107.208 7.493 107.738 8.1 108.278 8.805 108.721 9.609 109.07 10.42 109.416 11.241 109.63 12.073 109.714V109.714L11.976 110.042C11.009 109.903 10.081 109.655 9.194 109.298 8.298 108.937 7.521 108.456 6.864 107.853 6.203 107.259 5.729 106.54 5.443 105.695ZM47.901 150.983V150.983C47.363 150.763 47.057 150.424 46.983 149.968 46.902 149.508 46.973 149.007 47.196 148.463V148.463C47.44 147.868 47.841 147.207 48.401 146.479 48.952 145.756 49.599 145.015 50.342 144.259 51.077 143.506 51.834 142.789 52.614 142.107 53.403 141.421 54.16 140.815 54.883 140.29 55.601 139.761 56.228 139.361 56.766 139.088 57.304 138.815 57.678 138.722 57.89 138.808V138.808C58.03 138.866 58.111 138.989 58.131 139.176 58.155 139.373 58.146 139.586 58.105 139.816 58.067 140.054 58.012 140.26 57.941 140.433V140.433C57.802 140.772 57.54 141.176 57.153 141.646 56.766 142.115 56.288 142.618 55.717 143.154 55.137 143.693 54.501 144.214 53.81 144.716 53.122 145.226 52.406 145.688 51.662 146.1 50.921 146.521 50.187 146.845 49.46 147.07V147.07C49.246 147.371 49.053 147.669 48.88 147.965 48.71 148.269 48.568 148.562 48.453 148.843V148.843C48.253 149.33 48.174 149.716 48.214 150.001 48.251 150.293 48.407 150.495 48.682 150.608V150.608C49.015 150.744 49.405 150.732 49.852 150.572 50.302 150.405 50.766 150.157 51.243 149.83 51.718 149.494 52.159 149.129 52.566 148.735V148.735L52.786 148.993C51.86 149.847 50.982 150.459 50.15 150.828 49.316 151.204 48.567 151.256 47.901 150.983ZM49.882 146.503V146.503C50.496 146.246 51.123 145.92 51.763 145.525 52.397 145.127 53.016 144.701 53.621 144.246 54.222 143.782 54.774 143.32 55.276 142.861 55.785 142.404 56.206 141.979 56.539 141.585 56.87 141.197 57.086 140.878 57.188 140.629V140.629C57.238 140.507 57.255 140.421 57.239 140.369 57.229 140.32 57.211 140.291 57.186 140.28V140.28C57.083 140.238 56.849 140.325 56.484 140.542 56.11 140.762 55.654 141.073 55.116 141.473 54.572 141.87 53.995 142.34 53.384 142.882 52.771 143.43 52.158 144.013 51.547 144.629 50.942 145.248 50.387 145.873 49.882 146.503ZM107.703 151.578V151.578C106.958 151.912 106.308 151.957 105.751 151.715 105.198 151.478 104.786 151.06 104.517 150.461V150.461C104.271 149.912 104.146 149.27 104.142 148.537 104.145 147.8 104.256 147.06 104.476 146.317 104.69 145.577 104.996 144.916 105.394 144.335 105.793 143.754 106.261 143.344 106.797 143.103V143.103C107.081 142.975 107.372 142.932 107.671 142.972 107.976 143.009 108.23 143.255 108.434 143.71V143.71C108.641 144.17 108.701 144.666 108.614 145.198 108.52 145.733 108.323 146.257 108.023 146.771 107.717 147.288 107.344 147.766 106.905 148.206 106.466 148.646 105.992 149.01 105.485 149.298V149.298C105.52 149.427 105.557 149.55 105.595 149.67 105.631 149.783 105.671 149.889 105.716 149.99V149.99C105.798 150.173 105.9 150.348 106.02 150.514 106.146 150.677 106.3 150.809 106.481 150.909 106.657 151.012 106.857 151.063 107.083 151.06 107.312 151.063 107.569 151.001 107.853 150.873V150.873C108.376 150.638 108.827 150.258 109.205 149.732 109.58 149.199 109.879 148.591 110.103 147.907 110.317 147.219 110.449 146.516 110.497 145.797V145.797L110.787 145.86C110.788 146.739 110.656 147.56 110.392 148.323 110.122 149.089 109.758 149.756 109.301 150.325 108.847 150.885 108.315 151.303 107.703 151.578ZM105.422 148.906V148.906C105.702 148.651 106.002 148.323 106.322 147.921 106.643 147.52 106.93 147.088 107.184 146.625 107.436 146.155 107.606 145.689 107.693 145.225 107.787 144.758 107.746 144.329 107.57 143.938V143.938C107.511 143.806 107.439 143.713 107.354 143.66 107.279 143.61 107.159 143.622 106.995 143.696V143.696C106.705 143.826 106.445 144.076 106.216 144.444 105.99 144.818 105.805 145.258 105.66 145.763 105.522 146.264 105.428 146.792 105.381 147.344 105.333 147.896 105.347 148.416 105.422 148.906ZM149.207 107.53V107.53C149.03 108.076 148.737 108.41 148.327 108.532 147.913 108.646 147.465 108.625 146.985 108.47V108.47C146.59 108.342 146.202 108.148 145.821 107.887 145.44 107.626 145.1 107.331 144.799 107.001 144.498 106.672 144.275 106.338 144.13 106 143.982 105.669 143.952 105.369 144.039 105.099V105.099C144.061 105.033 144.092 104.971 144.133 104.911 144.176 104.845 144.221 104.783 144.269 104.726V104.726C144.336 104.879 144.479 105.077 144.698 105.322 144.923 105.57 145.188 105.819 145.492 106.069 145.794 106.327 146.102 106.557 146.414 106.759 146.731 106.971 147.008 107.114 147.245 107.191V107.191C147.627 107.314 147.924 107.338 148.138 107.261 148.356 107.193 148.498 107.058 148.564 106.854V106.854C148.651 106.584 148.609 106.218 148.438 105.756 148.274 105.296 148.026 104.816 147.693 104.316V104.316C147.282 104.576 146.808 104.728 146.27 104.773 145.726 104.815 145.207 104.757 144.714 104.597V104.597C144.292 104.461 143.921 104.261 143.599 103.998 143.277 103.734 143.05 103.424 142.918 103.069 142.783 102.721 142.779 102.349 142.907 101.954V101.954C143.077 101.427 143.332 101.121 143.672 101.035 144.006 100.946 144.384 100.97 144.805 101.106V101.106C145.298 101.265 145.809 101.564 146.336 102.003 146.863 102.442 147.346 102.936 147.787 103.485V103.485C147.993 103.297 148.137 103.075 148.22 102.818V102.818C148.286 102.614 148.316 102.373 148.312 102.096 148.315 101.814 148.256 101.514 148.132 101.198 148.009 100.883 147.797 100.593 147.497 100.329V100.329L147.768 100.165C148.284 100.615 148.59 101.11 148.685 101.649 148.784 102.197 148.766 102.682 148.63 103.103V103.103C148.576 103.268 148.509 103.42 148.427 103.561 148.346 103.702 148.252 103.835 148.146 103.961V103.961C148.58 104.573 148.904 105.201 149.118 105.844 149.334 106.481 149.364 107.043 149.207 107.53ZM147.311 103.811V103.811C146.939 103.342 146.53 102.92 146.085 102.543 145.633 102.165 145.18 101.903 144.726 101.756V101.756C144.357 101.637 144.067 101.602 143.855 101.65 143.648 101.706 143.518 101.817 143.465 101.981V101.981C143.382 102.238 143.482 102.557 143.766 102.94 144.054 103.331 144.478 103.616 145.037 103.797V103.797C145.406 103.916 145.795 103.983 146.204 103.999 146.615 104.008 146.984 103.946 147.311 103.811Z" fill="#000000" data-fill-palette-color="accent"></path><path d="M19.056 60.139V60.139C18.705 61.144 18.172 61.867 17.455 62.305 16.736 62.75 15.93 62.971 15.038 62.968 14.152 62.967 13.278 62.816 12.416 62.516V62.516C11.292 62.124 10.225 61.562 9.214 60.828 8.196 60.093 7.276 59.252 6.456 58.307 5.635 57.362 4.954 56.374 4.413 55.343 3.878 54.314 3.523 53.305 3.348 52.314 3.178 51.331 3.234 50.435 3.516 49.626V49.626C3.719 49.044 4.02 48.622 4.419 48.358 4.819 48.095 5.351 48.079 6.018 48.311V48.311C6.429 48.455 6.869 48.685 7.337 49.002 7.809 49.327 8.239 49.693 8.625 50.099 9.017 50.506 9.32 50.909 9.533 51.305 9.738 51.706 9.789 52.053 9.686 52.347V52.347C9.648 52.458 9.571 52.563 9.456 52.662 9.35 52.757 9.187 52.814 8.968 52.833V52.833C8.799 52.54 8.581 52.2 8.313 51.814 8.044 51.427 7.75 51.043 7.429 50.66 7.109 50.277 6.782 49.943 6.449 49.659 6.109 49.372 5.789 49.176 5.489 49.072V49.072C5.208 48.974 4.951 48.976 4.718 49.078 4.485 49.179 4.303 49.417 4.173 49.789V49.789C3.962 50.396 3.989 51.116 4.256 51.949 4.524 52.775 4.965 53.642 5.578 54.552 6.187 55.453 6.918 56.33 7.77 57.183 8.616 58.035 9.518 58.789 10.476 59.445 11.438 60.109 12.399 60.609 13.359 60.944V60.944C14.058 61.187 14.756 61.317 15.453 61.333 16.155 61.358 16.776 61.215 17.316 60.906 17.865 60.592 18.262 60.082 18.508 59.377V59.377C18.77 58.626 18.818 57.804 18.653 56.911 18.488 56.019 18.168 55.142 17.692 54.28 17.209 53.416 16.631 52.658 15.958 52.006V52.006L16.266 51.784C17.025 52.568 17.677 53.429 18.222 54.366 18.761 55.301 19.115 56.259 19.285 57.241 19.462 58.226 19.386 59.192 19.056 60.139ZM53.74 20.25V20.25C53.144 20.49 52.634 20.457 52.212 20.149 51.79 19.842 51.457 19.384 51.211 18.774V18.774C50.942 18.107 50.747 17.261 50.625 16.237 50.506 15.219 50.448 14.12 50.45 12.941 50.452 11.762 50.499 10.591 50.59 9.429 50.687 8.264 50.821 7.189 50.991 6.203 51.158 5.211 51.351 4.395 51.571 3.755 51.793 3.122 52.022 2.757 52.26 2.661V2.661C52.414 2.599 52.574 2.636 52.74 2.77 52.905 2.905 53.066 3.082 53.222 3.303 53.372 3.526 53.485 3.733 53.563 3.926V3.926C53.715 4.304 53.82 4.833 53.877 5.511 53.934 6.189 53.942 6.968 53.902 7.849 53.861 8.73 53.761 9.647 53.6 10.599 53.436 11.544 53.222 12.474 52.955 13.386 52.685 14.307 52.346 15.141 51.938 15.887V15.887C52.005 16.293 52.085 16.685 52.178 17.065 52.269 17.439 52.379 17.786 52.508 18.107V18.107C52.725 18.646 52.964 19.016 53.223 19.217 53.486 19.424 53.771 19.466 54.079 19.342V19.342C54.451 19.192 54.756 18.875 54.994 18.392 55.225 17.911 55.401 17.348 55.521 16.703 55.645 16.064 55.716 15.428 55.737 14.793V14.793L56.12 14.829C56.037 16.234 55.808 17.415 55.433 18.371 55.055 19.321 54.491 19.947 53.74 20.25ZM51.834 15.101V15.101C52.126 14.417 52.374 13.665 52.58 12.844 52.783 12.031 52.944 11.202 53.066 10.356 53.19 9.515 53.276 8.712 53.326 7.947 53.372 7.19 53.376 6.525 53.338 5.951 53.299 5.371 53.223 4.943 53.112 4.667V4.667C53.055 4.526 53.003 4.442 52.955 4.417 52.899 4.387 52.858 4.378 52.832 4.388V4.388C52.723 4.432 52.603 4.689 52.472 5.159 52.344 5.621 52.221 6.222 52.102 6.963 51.977 7.707 51.883 8.539 51.821 9.459 51.75 10.375 51.712 11.318 51.708 12.289 51.704 13.26 51.746 14.197 51.834 15.101ZM105.245 20.018V20.018C104.411 19.645 103.888 19.139 103.674 18.498 103.463 17.851 103.507 17.193 103.806 16.523V16.523C104.082 15.904 104.524 15.322 105.132 14.775 105.749 14.225 106.45 13.766 107.236 13.397 108.015 13.026 108.796 12.787 109.578 12.682 110.366 12.579 111.06 12.662 111.66 12.93V12.93C111.976 13.071 112.233 13.284 112.431 13.57 112.623 13.852 112.604 14.249 112.376 14.761V14.761C112.145 15.279 111.771 15.699 111.256 16.022 110.744 16.338 110.157 16.565 109.498 16.702 108.841 16.833 108.165 16.88 107.47 16.842 106.769 16.801 106.113 16.675 105.503 16.463V16.463C105.416 16.591 105.338 16.715 105.269 16.836 105.196 16.947 105.136 17.057 105.088 17.164V17.164C104.995 17.372 104.928 17.589 104.889 17.813 104.846 18.044 104.847 18.272 104.891 18.496 104.941 18.723 105.049 18.93 105.215 19.118 105.384 19.315 105.627 19.484 105.943 19.625V19.625C106.53 19.887 107.187 19.976 107.914 19.892 108.638 19.814 109.368 19.613 110.103 19.29 110.841 18.961 111.527 18.544 112.161 18.039V18.039L112.337 18.334C111.598 18.988 110.808 19.492 109.969 19.844 109.133 20.19 108.309 20.382 107.496 20.421 106.684 20.46 105.933 20.325 105.245 20.018ZM105.781 16.121V16.121C106.201 16.165 106.698 16.171 107.272 16.14 107.847 16.109 108.422 16.025 108.998 15.888 109.58 15.754 110.099 15.551 110.555 15.277 111.01 15.003 111.337 14.645 111.534 14.203V14.203C111.599 14.058 111.625 13.933 111.611 13.828 111.591 13.721 111.492 13.628 111.315 13.549V13.549C110.987 13.402 110.58 13.372 110.095 13.458 109.616 13.547 109.114 13.721 108.59 13.979 108.059 14.234 107.548 14.547 107.056 14.919 106.565 15.29 106.14 15.691 105.781 16.121ZM141.74 57.136V57.136C141.536 56.519 141.579 56.02 141.869 55.64 142.165 55.258 142.582 54.979 143.121 54.801V54.801C143.561 54.655 144.041 54.577 144.562 54.565 145.076 54.556 145.577 54.597 146.067 54.691 146.559 54.79 146.982 54.946 147.335 55.157 147.687 55.361 147.913 55.614 148.012 55.916V55.916C148.036 55.988 148.05 56.064 148.054 56.143 148.061 56.228 148.059 56.312 148.05 56.395V56.395C147.897 56.307 147.637 56.226 147.27 56.15 146.91 56.073 146.506 56.02 146.06 55.993 145.614 55.965 145.183 55.962 144.768 55.983 144.343 55.999 143.997 56.052 143.727 56.141V56.141C143.3 56.282 143.016 56.456 142.873 56.663 142.73 56.871 142.696 57.086 142.769 57.309V57.309C142.869 57.611 143.145 57.917 143.597 58.227 144.055 58.534 144.599 58.803 145.228 59.032V59.032C145.427 58.529 145.755 58.079 146.213 57.68 146.678 57.278 147.186 56.987 147.738 56.805V56.805C148.21 56.648 148.681 56.584 149.149 56.612 149.61 56.641 150.018 56.773 150.371 57.005 150.725 57.238 150.974 57.574 151.12 58.014V58.014C151.313 58.599 151.288 59.041 151.044 59.34 150.796 59.647 150.436 59.879 149.963 60.035V60.035C149.411 60.218 148.752 60.283 147.984 60.23 147.219 60.184 146.453 60.059 145.685 59.853V59.853C145.632 60.155 145.653 60.45 145.749 60.739V60.739C145.822 60.962 145.953 61.203 146.14 61.462 146.326 61.714 146.579 61.94 146.9 62.14 147.216 62.348 147.596 62.474 148.04 62.517V62.517L147.908 62.845C147.143 62.777 146.537 62.529 146.089 62.101 145.642 61.674 145.342 61.227 145.188 60.76V60.76C145.125 60.57 145.081 60.384 145.058 60.202 145.034 60.021 145.033 59.839 145.053 59.658V59.658C144.258 59.389 143.551 59.036 142.933 58.599 142.316 58.162 141.918 57.674 141.74 57.136ZM145.907 59.234V59.234C146.558 59.419 147.207 59.532 147.855 59.574 148.511 59.619 149.095 59.557 149.607 59.388V59.388C150.021 59.251 150.303 59.093 150.455 58.911 150.61 58.722 150.658 58.535 150.597 58.351V58.351C150.504 58.069 150.201 57.845 149.687 57.679 149.176 57.52 148.608 57.544 147.984 57.75V57.75C147.571 57.887 147.173 58.083 146.792 58.341 146.413 58.604 146.118 58.902 145.907 59.234Z" fill="#000000" data-fill-palette-color="accent"></path><path d="M0 81.205c0-3.416 2.77-6.186 6.186-6.186 3.416 0 6.186 2.77 6.186 6.186 0 3.416-2.77 6.186-6.186 6.186-3.416 0-6.186-2.77-6.186-6.186zM142.128 81.205c0-3.416 2.77-6.186 6.186-6.186 3.416 0 6.186 2.77 6.186 6.186 0 3.416-2.77 6.186-6.186 6.186-3.416 0-6.186-2.77-6.186-6.186z" fill="#000000" data-fill-palette-color="accent"></path></svg></g><defs></defs></svg><rect width="154.5" height="154.5" fill="none" stroke="none" visibility="hidden"></rect></g></svg></g></svg>